<svg xmlns="http://www.w3.org/2000/svg" viewBox="31.9559 124.426 335.6 148.1">
	<path d="M240.777 214.14c.059-.039 5.947-3.962 9.545-6.936 4.366-3.608 6.232-5.414 8.333-7.669 6.884-7.384 3.698-13.513 1.889-15.251-1.328-1.276-2.854-1.896-4.663-1.896-.263 0-.516.012-.757.03-3.719.274-7.673 2.929-11.134 7.474-1.163 1.53-3.959 5.762-4.788 11.999-.479 3.623-.212 7.264.792 10.821l.361 1.276.103.365.319-.213Zm-113.546-.115c.991-.663 6.1-4.11 9.376-6.823 4.377-3.609 6.244-5.413 8.342-7.666 6.883-7.394 3.691-13.514 1.882-15.246-1.923-1.841-4.135-2.023-5.421-1.873-3.701.433-7.67 2.933-11.134 7.479-1.16 1.522-3.949 5.74-4.789 11.999-.475 3.619-.159 8.086.796 10.816.236.674.655 1.526.655 1.526l.293-.212Zm172.484-21.897-.545 1.358 1.007-1.074 1.672-1.784c6.516-6.945 11.93-13.303 15.246-17.901 6.626-9.197 9.871-16.575 12.627-23.344 1.655-4.071 2.565-8.176 2.434-10.98l-.045-.943-.027-.566-.433.376-.721.626c-2.384 2.071-7.541 7.623-15.297 21.542-6.707 12.035-11.617 21.991-15.012 30.436l-.906 2.254Zm67.162 18.067c2.288 11.889-2.981 21.413-12.214 25.992-2.269 1.126-5.741 1.753-8.181 1.753-8.015 0-13.369-3.899-15.661-5.556 2.668-2.545 5.307-5.438 7.851-8.608.624.647 1.236 1.193 1.826 1.627 1.557 1.116 3.266 1.682 5.078 1.682 3.462 0 6.761-2.121 8.362-4.093 3.282-4.085 2.153-9.818.466-16.341-.611-2.414-1.895-6.129-3.272-9.465 0-.001-2.393-5.668-2.393-5.669l-1.002 2.017c-4.488 9.216-8.285 15.224-8.286 15.226-4.981 8.07-15.325 22.376-28.647 27.518-2.982 1.15-6.943 1.558-9.303 1.558-2.552 0-9.832-.026-15.484-8.14-1.1-1.579-2.376-4.61-2.377-4.612l-.301.296c-8.785 8.596-17.304 12.429-27.621 12.429-2.065 0-7.357-.231-11.898-2.367-3.625-1.706-6.983-4.343-6.985-4.344-.001 0-10.239 6.716-20.192 6.716-10.485 0-16.454-5.882-18.033-7.685-3.805-4.343-5.963-8.332-7.867-11.852l-1.441-2.652-2.27 2.388c-2.976 3.258-10.882 12.016-24.818 16.7-2.199.739-10.026 3.15-18.406 3.15-.677 0-7.582.171-13.925-2.59-1.091-.475-4.411-1.921-7.858-4.884l-.147-.127-.172.094c-9.079 5.014-18.619 7.556-28.3549 7.556-1.0735 0-2.1628-.031-3.2373-.094-13.2489-.76-23.292-5.588-28.3287-9.891.0001-.001.9317-4.822 1.4135-7.221 0 0 .4872-2.387.5613-2.746 1.9446.908 5.4109 2.545 10.0355 2.545 3.4541 0 6.5981-1.223 9.6117-3.74 1.0483-.877 10.2109-8.907 9.1653-20.755-.2669-3.007-.7633-8.603-4.841-10.907-1.1524-.648-2.4852-.976-3.9622-.976-2.4902 0-5.3627.918-8.5378 2.73-1.9211 1.096-3.9618 2.531-5.7459 4.043l-.1186.101c-7.2058 6.776-10.9652 13.589-13.417 24.336L44.6208 272.476H32.0559l19.3654-97.633H63.979l-2.3734 11.97c.0002 0 3.8252-4.296 5.1765-5.563 5.768-5.408 14.0496-9.76 21.3204-9.76h.1745c4.1259.052 7.5174 1.405 10.081 4.02 4.083 4.161 6.193 11.366 5.942 20.284-.304 10.81-4.7199 23.063-14.7259 29.879-.3962.27-2.0907 1.354-2.0911 1.354 0 0 .7427.1.9808.112.9643.051 3.9665.04 4.6703.015 8.1139-.291 14.7589-2.494 21.7719-6.185 0 0-1.549-4.297-1.952-6.582-1.372-7.771-1.773-18.345 7.38-31.243 3.799-5.354 11.669-11.616 21.342-11.645 3.471 0 15.053.94 18.346 13.034 2.09 7.712-.684 16.502-7.241 22.94-10.239 10.056-19.721 15.983-19.722 15.984 0 0 3.43 1.671 5.25 2.158 3.184.853 8.473.756 12.58-.127 5.249-1.127 10.001-3.022 14.528-5.79 8.105-4.966 13.143-10.192 14.799-11.909.001-.001 3.128-3.261 3.129-3.262-.001-.002-7.331-14.145-11.492-22.542-1.262-2.547-2.418-4.88-3.565-7.141h13.104c3.371 7.164 10.478 20.757 10.479 20.759.002-.002 9.644-10.084 19.961-20.755h16.221l-30.182 31.76c0 .002 5.124 9.295 8.447 13.771 8.657 11.662 23.078 1.581 23.079 1.58l-.114-.234c-1.153-2.365-1.963-4.836-2.408-7.346-1.372-7.765-1.773-18.333 7.381-31.239 3.796-5.355 11.664-11.62 21.34-11.65 3.471 0 15.052.94 18.344 13.037 2.097 7.717-.676 16.507-7.239 22.94-12.143 11.903-19.678 15.959-19.68 15.96.001.001 4.352 2.865 9.042 2.865 5.179 0 8.796-2.007 11.25-3.63 7.334-4.849 14.761-13.399 15.17-14.134.001-.001 1.242-7.416 3.132-13.269 3.652-11.313 10.111-25.316 19.198-41.619 10.917-19.591 19.916-29.114 27.51-29.114.681 0 1.353.069 2.054.212 3.58.733 6.502 2.872 8.228 6.023 4.126 7.536.375 18.666-1.43 23.102-2.898 7.117-6.609 15.57-14.009 25.841-6.426 8.918-19.284 22.929-32.759 35.697l-.126.12-.076.072-.007.103-.013.169c-.013.16-.28 3.958 2.793 7.474 3.225 3.691 7.3 2.373 9.225 1.723 10.197-4.014 17.273-14.628 22.96-23.159.001-.001 10.267-16.325 14.963-23.786l2.059-3.273h12.229c-.234 2.067-.729 7.767.281 12.316.408 1.838 1.633 4.638 2.958 7.602 2.079 4.647 3.899 8.545 5.224 15.433Z" stroke="#FF0000" stroke-width="0.1" fill="white"/>
</svg>